<svg width="1632" height="758" xmlns="http://www.w3.org/2000/svg" xmlns:xlink="http://www.w3.org/1999/xlink" overflow="hidden"><defs><clipPath id="clip0"><rect x="0" y="0" width="1632" height="758"/></clipPath></defs><g clip-path="url(#clip0)"><rect x="0" y="0" width="1632" height="757.667" fill="#0F0F0F"/><path d="M91.5001 295.37C91.5001 163.432 198.504 56.4752 330.5 56.4752 462.496 56.4752 569.5 163.432 569.5 295.37 569.5 427.308 462.496 534.265 330.5 534.265 198.504 534.265 91.5001 427.308 91.5001 295.37Z" stroke="#FFFFFF" stroke-width="93.3333" stroke-miterlimit="8" fill="none" fill-rule="evenodd"/><path d="M330.5 295.37 597.288 295.37" stroke="#FFFFFF" stroke-width="93.3333" stroke-miterlimit="8" fill="none" fill-rule="evenodd"/><text fill="#FFFFFF" font-family="Franklin Gothic Demi Cond,Franklin Gothic Demi Cond_MSFontService,sans-serif" font-weight="600" font-stretch="condensed" font-size="227" transform="matrix(1 0 0 0.99956 681.6 582)">GAME<tspan font-size="227" x="624" y="0">ON</tspan><tspan fill="#9B9B9B" font-weight="700" font-size="80" x="-630.667" y="141.062">G </tspan><tspan fill="#9B9B9B" font-weight="700" font-size="80" x="-539.333" y="141.062">A   </tspan><tspan fill="#9B9B9B" font-weight="700" font-size="80" x="-453.333" y="141.062">M </tspan><tspan fill="#9B9B9B" font-weight="700" font-size="80" x="-348.333" y="141.062">E </tspan><tspan fill="#9B9B9B" font-weight="700" font-size="80" x="-102.667" y="141.062">R  </tspan><tspan fill="#9B9B9B" font-weight="700" font-size="80" x="-13.9999" y="141.062">E   </tspan><tspan fill="#9B9B9B" font-weight="700" font-size="80" x="69.1667" y="141.062">V </tspan><tspan fill="#9B9B9B" font-weight="700" font-size="80" x="151" y="141.062">I </tspan><tspan fill="#9B9B9B" font-weight="700" font-size="80" x="217.833" y="141.062">E </tspan><tspan fill="#9B9B9B" font-weight="700" font-size="80" x="301" y="141.062">W </tspan><tspan fill="#9B9B9B" font-weight="700" font-size="80" x="617.333" y="141.062">S </tspan><tspan fill="#9B9B9B" font-weight="700" font-size="80" x="703.333" y="141.062">I </tspan><tspan fill="#9B9B9B" font-weight="700" font-size="80" x="770.167" y="141.062">T   </tspan><tspan fill="#9B9B9B" font-weight="700" font-size="80" x="846.5" y="141.062">E</tspan></text><path d="M52.5001 634.221 1572.5 634.221" stroke="#FF4141" stroke-width="6.66667" stroke-miterlimit="8" fill="#2D2D2D" fill-rule="evenodd"/></g></svg>